<svg width="33" height="32" viewBox="0 0 33 32" fill="none" xmlns="http://www.w3.org/2000/svg">
<path d="M16.1715 17.8667L9.63812 24.4001C9.39367 24.6445 9.08256 24.7667 8.70479 24.7667C8.32701 24.7667 8.0159 24.6445 7.77145 24.4001C7.52701 24.1556 7.40479 23.8445 7.40479 23.4667C7.40479 23.089 7.52701 22.7778 7.77145 22.5334L14.3048 16.0001L7.77145 9.46673C7.52701 9.22229 7.40479 8.91118 7.40479 8.5334C7.40479 8.15562 7.52701 7.84451 7.77145 7.60006C8.0159 7.35562 8.32701 7.2334 8.70479 7.2334C9.08256 7.2334 9.39367 7.35562 9.63812 7.60006L16.1715 14.1334L22.7048 7.60006C22.9492 7.35562 23.2603 7.2334 23.6381 7.2334C24.0159 7.2334 24.327 7.35562 24.5715 7.60006C24.8159 7.84451 24.9381 8.15562 24.9381 8.5334C24.9381 8.91118 24.8159 9.22229 24.5715 9.46673L18.0381 16.0001L24.5715 22.5334C24.8159 22.7778 24.9381 23.089 24.9381 23.4667C24.9381 23.8445 24.8159 24.1556 24.5715 24.4001C24.327 24.6445 24.0159 24.7667 23.6381 24.7667C23.2603 24.7667 22.9492 24.6445 22.7048 24.4001L16.1715 17.8667Z" fill="#C5C5C5"/>
</svg>
